<svg width="174" height="56" viewBox="0 0 174 56" fill="none" xmlns="http://www.w3.org/2000/svg">
<path d="M21.101 49.3639C20.387 49.0579 19.646 48.8279 18.885 48.6329C19.607 48.9169 20.345 49.1569 21.101 49.3639Z" fill="white"/>
<path d="M34.817 8.79895C33.689 8.71195 32.774 7.57695 31.557 8.11595L31.716 7.69295C30.589 7.48595 29.459 7.74696 28.335 7.62996L28.358 7.13795L27.888 7.45695L27.954 7.21095C27.076 7.44195 25.799 6.89695 25.17 7.57095L25.288 7.03595C24.577 7.06295 23.888 7.44595 23.226 7.72595C22.557 8.00695 21.914 8.18195 21.124 7.81995C21.203 7.72095 21.159 7.64596 21.197 7.59496C21.187 7.59096 21.176 7.59396 21.167 7.59096C20.901 7.66196 20.629 7.71496 20.369 7.79596C20.254 7.88096 20.14 7.97596 20.04 8.07996L20.047 7.91295C19.982 7.93395 19.92 7.96195 19.853 7.98395C19.442 8.35695 18.995 8.43895 18.54 8.46495C17.858 8.74595 17.191 9.05695 16.548 9.40495C16.523 9.47995 16.496 9.55196 16.482 9.64096L16.257 9.57295C16.203 9.60295 16.153 9.63695 16.102 9.66695C16.51 10.4089 15.484 10.15 15.594 10.848L15.465 10.401C15.027 11.49 14.138 11.831 13.214 12.254C12.306 12.664 11.38 13.171 11.224 14.271L10.961 14.0679C10.239 14.9029 10.027 15.667 9.329 16.489C8.672 17.609 7.85301 18.6529 7.21801 19.8179C6.58401 20.9739 6.14099 22.252 6.30199 23.58L6.04702 23.5079C6.33202 24.5739 6.14 25.522 6.045 26.506C5.992 26.994 5.97902 27.4859 6.05102 27.9539C6.13702 28.4669 6.30699 28.9049 6.65999 29.3459C6.50199 31.4829 6.93701 33.743 8.14101 35.532C8.00401 35.502 7.70199 35.64 7.65499 35.696C9.14999 35.519 7.81302 36.549 8.78402 36.961C8.71602 37.151 8.42301 37.119 8.30501 37.166C8.65801 38.178 9.82699 38.754 10.048 39.856C9.97699 39.857 9.90201 39.859 9.79101 39.929C10.072 40.078 10.35 40.2229 10.629 40.3569L10.339 40.3739C11.525 42.1829 13.299 43.545 15.151 44.541C17.016 45.551 18.942 46.214 20.797 46.95C20.657 46.815 20.521 47.179 20.431 47.422L20.841 47.2489L20.807 47.457C21.478 47.031 21.671 48.096 22.203 47.863C22.099 47.965 22.099 47.965 22.065 48.09C22.557 48.061 22.854 48.908 23.378 48.845C23.302 48.833 23.276 48.957 23.3 49.033C23.739 48.561 24.232 47.7289 24.595 47.3199L24.637 47.268C24.623 47.281 24.607 47.3049 24.595 47.3199C25.76 48.0329 27.198 48.4829 28.607 48.4409C30.009 48.4049 31.37 47.874 32.281 46.81C32.55 47.551 32.868 46.6429 33.161 47.1109C33.811 46.3789 34.899 46.08 35.146 45.343C35.632 45.516 35.827 45.1459 36.618 46.0419C36.764 45.0919 37.597 44.4969 38.222 43.9389L38.25 44.099C38.551 43.279 39.501 43.133 40.082 42.951C39.712 41.644 41.353 41.7939 41.172 40.6349C41.755 40.0289 42.712 39.338 43.267 38.466C43.41 38.58 43.59 38.666 43.819 38.718C42.974 37.848 44.587 37.661 43.729 37.106C45.263 37.219 43.291 36.16 44.585 36.093C44.536 36.125 44.618 36.176 44.69 36.22C44.79 35.919 45.305 35.2209 46.247 35.2209C45.421 35.2089 46.083 34.6519 45.739 34.3719C46.074 33.2589 46.33 32.074 46.198 31.016C47.246 31.304 45.465 30.621 46.096 30.582L46.405 30.534C46.516 30.351 46.929 30.0239 46.3 29.7319C46.272 29.7259 46.259 29.728 46.244 29.731C46.198 29.769 46.165 29.808 46.129 29.853C46.157 29.814 46.138 29.734 46.244 29.731C46.587 29.381 47.371 29.378 47.456 28.819C47.859 28.771 47.592 28.8019 48.131 28.6649L47.593 28.573C47.866 28.371 48.156 28.333 48.462 28.352C48.419 21.443 45.134 15.315 40.059 11.378C38.296 10.432 36.467 9.78495 34.687 8.92395L34.817 8.79895ZM37.644 16.781C37.644 16.781 40.046 18.017 38.885 19.016C38.885 19.016 35.549 21.872 34.864 22.315L34.932 22.3589V37.0789C34.932 38.5239 36.31 39.353 36.31 39.353C36.814 39.757 38.288 40.644 38.288 40.644L35.894 39.815C34.516 39.256 33.296 38.1389 33.296 38.1389C32.17 36.8089 32.356 35.4409 32.356 35.4409V20.935L32.101 20.7879C32.101 20.7879 34.845 18.631 35.415 18.168C35.415 18.168 36.093 17.643 36.266 17.104C36.266 17.104 36.284 16.859 35.919 16.694C35.919 16.694 34.158 15.6909 33.504 15.3439C33.504 15.3439 32.278 14.47 30.777 15.255C30.777 15.255 27.62 16.629 25.515 18.146C25.515 18.146 24.995 18.493 25.047 18.582C25.047 18.582 25.341 19.044 25.633 19.198L25.496 19.222L27.946 20.873L30.257 22.3589V37.0789C30.257 38.5239 31.637 39.353 31.637 39.353C32.144 39.757 33.614 40.644 33.614 40.644L31.224 39.815C29.843 39.256 28.626 38.1389 28.626 38.1389C27.497 36.8089 27.683 35.4409 27.683 35.4409V33.255C27.321 33.48 26.794 33.698 26.016 33.828C26.016 33.828 23.472 34.703 22.765 34.933C22.765 34.933 19.976 35.728 22.245 37.141C22.245 37.141 24.942 38.555 25.679 38.94L26.139 39.608L24.298 38.94C24.298 38.94 17.369 35.78 18.81 34.059C18.81 34.059 18.975 33.882 19.376 33.623C18.591 33.35 17.46 32.8649 16.543 32.0809C16.543 32.0809 13.722 30.051 16.819 28.92C16.819 28.92 18.814 28.2559 20.348 27.6929C19.06 27.1929 17.149 25.334 17.149 25.334C14.947 23.405 14.574 22.172 14.574 22.172C13.606 20.36 17.196 20.2079 17.196 20.2079C18.259 20.1839 22.437 20.2079 22.437 20.2079L23.623 21.8829V19.9799L26.23 21.8549V25.733C26.23 25.733 26.322 26.864 25.737 27.378C25.737 27.378 25.308 27.788 24.575 28.174L24.097 28.3589C24.784 28.7429 26.201 29.565 26.751 30.102C26.751 30.102 27.219 30.323 27.681 30.675V21.675L24.121 19.1519L24.392 19.129C23.848 18.919 23.03 18.583 22.727 18.358C22.727 18.358 21.331 18.0109 23.04 16.6239C23.04 16.6239 26.497 14.468 28.444 13.261C28.444 13.261 29.706 12.2079 31.84 13.5419C31.844 13.5429 36.752 16.179 37.644 16.781Z" fill="white"/>
<path d="M48.105 32.364C48.123 32.275 48.132 32.184 48.147 32.093C48.087 32.169 48.082 32.262 48.105 32.364Z" fill="white"/>
<path d="M48.21 30.465C48.038 30.77 47.569 30.36 47.631 30.776L47.981 30.87C47.556 30.913 47.893 31.12 48.262 31.35C48.322 30.901 48.365 30.45 48.397 29.993C48.326 30.085 48.159 30.142 47.795 30.133C47.567 30.361 48.179 30.339 48.21 30.465Z" fill="white"/>
<path d="M24.939 50.052C24.935 50.053 24.931 50.054 24.928 50.054C25.547 50.108 26.172 50.149 26.807 50.149C27.299 50.149 27.784 50.108 28.265 50.075C28.23 50.061 28.197 50.052 28.161 50.036C27.191 49.452 26.124 49.8 24.939 50.052Z" fill="white"/>
<path d="M48.416 29.609C48.421 29.526 48.425 29.442 48.427 29.358C48.395 29.434 48.401 29.522 48.416 29.609Z" fill="white"/>
<path d="M45.799 38.465C44.374 39.644 43.52 41.039 42.501 42.459C41.5 43.861 40.313 45.267 38.658 45.969C38.271 46.454 37.845 46.92 37.403 47.369C41.789 44.904 45.213 40.955 47.031 36.204C47.028 36.206 47.027 36.206 47.025 36.208C46.371 36.913 45.773 37.538 45.799 38.465Z" fill="white"/>
<path d="M17.615 24.72C17.844 25.106 19.682 26.533 19.682 26.533C19.903 26.778 20.442 27.173 20.906 27.491C21.344 27.323 21.712 27.175 21.914 27.074C21.914 27.074 23.813 26.2 23.629 25.353V22.306C22.572 22.36 18.947 22.563 18.947 22.563C15.591 22.677 17.615 24.72 17.615 24.72Z" fill="white"/>
<path d="M18.017 31.877C18.017 31.877 18.801 32.775 19.664 33.451C20.247 33.118 21.177 32.699 22.617 32.314C22.617 32.314 24.302 31.901 24.974 31.517C24.974 31.517 27.06 30.694 25.556 29.975C25.556 29.975 24.429 28.885 23.833 28.465L20.01 29.949C20.012 29.95 17.374 30.849 18.017 31.877Z" fill="white"/>
<path d="M50.909 28.229L51.179 28.486L51.333 28.413L50.909 28.229Z" fill="white"/>
<path d="M50.218 27.3C50.139 27.34 50.013 27.329 49.935 27.368C50.341 27.577 50.757 27.799 51.159 28.033C51.836 27.684 49.767 27.517 50.218 27.3Z" fill="white"/>
<path d="M50.324 27.089C50.589 26.799 50.019 26.724 49.822 26.679C50.265 26.741 49.718 27.185 50.324 27.089Z" fill="white"/>
<path d="M37.9 8.01698C37.923 8.02598 37.962 8.02797 37.99 8.02697C37.964 7.98997 37.93 7.99298 37.9 8.01698Z" fill="white"/>
<path d="M49.552 28.5C49.162 28.463 48.803 28.369 48.464 28.348C48.158 28.328 47.868 28.367 47.595 28.569L48.133 28.661C47.594 28.799 47.862 28.767 47.458 28.815C47.373 29.374 46.589 29.377 46.246 29.727C46.261 29.725 46.272 29.722 46.302 29.728C46.933 30.02 46.52 30.348 46.407 30.53L46.098 30.578C45.465 30.617 47.246 31.3 46.2 31.012C46.332 32.07 46.076 33.255 45.741 34.368C46.085 34.648 45.423 35.205 46.249 35.217C45.309 35.217 44.792 35.915 44.692 36.216C44.62 36.172 44.538 36.121 44.587 36.089C43.291 36.156 45.265 37.215 43.731 37.102C44.587 37.657 42.976 37.844 43.821 38.714C43.592 38.662 43.412 38.576 43.269 38.462C42.714 39.334 41.757 40.025 41.174 40.631C41.355 41.79 39.714 41.64 40.084 42.947C39.503 43.129 38.553 43.275 38.252 44.094L38.224 43.934C37.6 44.492 36.767 45.086 36.62 46.037C35.829 45.141 35.636 45.511 35.148 45.338C34.901 46.075 33.813 46.374 33.163 47.106C32.87 46.639 32.552 47.546 32.283 46.805C31.372 47.868 30.012 48.4 28.609 48.436C27.2 48.478 25.762 48.028 24.597 47.315C24.234 47.724 23.743 48.556 23.302 49.028C23.28 48.952 23.304 48.827 23.38 48.84C22.857 48.903 22.56 48.056 22.067 48.085C22.1 47.96 22.1 47.96 22.205 47.858C21.675 48.091 21.48 47.026 20.809 47.452L20.843 47.244L20.433 47.417C20.523 47.175 20.661 46.81 20.799 46.945C18.945 46.209 17.02 45.547 15.153 44.536C13.301 43.54 11.527 42.178 10.341 40.369L10.631 40.352C10.352 40.219 10.074 40.074 9.79299 39.924C9.90199 39.855 9.97901 39.853 10.05 39.851C9.82901 38.748 8.658 38.172 8.307 37.161C8.423 37.114 8.716 37.146 8.786 36.956C7.815 36.544 9.152 35.514 7.656 35.691C7.704 35.635 8.008 35.497 8.143 35.527C6.939 33.738 6.50201 31.478 6.66201 29.341C6.30801 28.9 6.139 28.462 6.053 27.949C5.981 27.481 5.99402 26.989 6.04702 26.501C6.14202 25.517 6.334 24.569 6.049 23.503L6.30401 23.575C6.14301 22.247 6.58599 20.969 7.21999 19.813C7.85699 18.648 8.67402 17.604 9.33102 16.484C10.029 15.661 10.24 14.898 10.963 14.063L11.226 14.266C11.382 13.166 12.308 12.66 13.216 12.249C14.14 11.826 15.029 11.486 15.467 10.396L15.596 10.843C15.486 10.146 16.512 10.405 16.104 9.66197C16.074 9.60697 16.055 9.55897 16.005 9.49197L16.259 9.56796L16.484 9.63597C16.5 9.54797 16.525 9.47496 16.55 9.39996C16.806 8.61796 17.408 8.50396 18.034 8.47996C18.201 8.47196 18.373 8.46897 18.542 8.45997C18.996 8.43397 19.443 8.35197 19.855 7.97897C19.922 7.91697 19.988 7.85196 20.056 7.77296L20.049 7.90797L20.042 8.07496C20.142 7.97096 20.256 7.87597 20.371 7.79097C20.63 7.59997 20.912 7.48597 21.169 7.58597C21.178 7.58897 21.19 7.58596 21.199 7.58996C21.161 7.64096 21.205 7.71497 21.126 7.81497C21.916 8.17697 22.559 8.00196 23.228 7.72096C23.888 7.44096 24.579 7.05797 25.29 7.03097L25.172 7.56596C25.801 6.89196 27.078 7.43796 27.956 7.20596L27.89 7.45196L28.36 7.13296L28.337 7.62497C29.461 7.74197 30.591 7.48097 31.718 7.68797L31.559 8.11096C32.776 7.57196 33.691 8.70697 34.819 8.79397L34.69 8.91496C36.47 9.77596 38.299 10.423 40.062 11.369C40.76 11.745 41.45 12.164 42.121 12.67C42.053 12.674 41.95 12.759 41.883 12.763C42.088 12.748 42.403 12.651 42.489 12.786C42.445 12.887 42.307 12.906 42.24 12.903C42.136 13.831 43.815 13.886 43.627 14.57C43.799 14.647 44.084 14.514 44.21 14.287C45.824 15.965 47.22 18.033 48.632 20.108C48.579 20.255 48.397 20.346 48.145 20.407C50.017 21.926 50.089 24.355 50.061 26.467C50.382 26.523 50.376 26.217 50.724 26.404C51.056 25.645 49.816 25.219 50.284 24.515L50.598 24.545C50.709 24.049 49.827 24.584 50.126 24.043C50.34 23.809 50.518 24.017 50.522 23.925C50.215 22.979 50.213 21.875 49.217 21.219C49.783 20.79 48.9 20.221 49.359 19.654C49.018 19.51 48.982 19.248 48.541 19.328C48.037 17.685 47.113 16.178 46.02 14.832C44.919 13.482 43.663 12.287 42.393 11.116C41.363 11.059 40.749 10.483 40.105 9.81297C39.465 9.14997 38.784 8.39697 37.838 8.12597C37.848 8.08297 37.875 8.03796 37.901 8.01196C37.199 7.98896 36.342 7.73696 35.727 7.30496L34.949 7.57997C33.134 6.26697 30.888 5.65497 28.645 5.48297C26.407 5.30797 24.125 5.53296 21.872 5.78596C19.319 6.17296 16.884 6.82097 14.726 8.02597C12.581 9.21997 10.726 11.005 9.72399 13.424C9.63099 13.334 9.55201 13.319 9.60101 13.192C8.85301 14.424 7.703 15.211 7.212 16.519L7.10799 16.45C6.68199 18.157 5.937 19.67 5.367 21.287C4.802 22.887 4.43299 24.594 4.84499 26.207C4.30499 29.961 5.11801 34.408 7.15801 37.825L6.92602 37.925C7.85302 39.247 8.48902 40.656 9.28802 42.048C10.075 43.43 11.047 44.778 12.425 45.672C13.528 46.977 15.218 47.656 16.871 48.11C17.555 48.298 18.226 48.457 18.889 48.627C19.65 48.822 20.391 49.052 21.105 49.358C21.286 49.436 21.47 49.499 21.648 49.59C22.488 50.441 23.768 50.303 24.932 50.048C24.935 50.048 24.939 50.047 24.943 50.046C26.129 49.794 27.195 49.446 28.166 50.03C28.2 50.046 28.234 50.054 28.27 50.069C30.245 50.879 32.323 50.639 34.1 49.804C35.349 49.22 36.443 48.347 37.409 47.364C37.851 46.914 38.277 46.449 38.663 45.964C40.317 45.262 41.506 43.856 42.507 42.454C43.526 41.034 44.38 39.639 45.805 38.46C45.78 37.533 46.376 36.908 47.033 36.204C47.035 36.203 47.036 36.203 47.038 36.2C47.691 35.507 48.4 34.727 48.495 33.775L48.176 33.764C48.908 33.454 48.224 32.806 48.113 32.36C48.09 32.257 48.094 32.165 48.155 32.089C48.225 32.004 48.37 31.94 48.634 31.911L48.686 31.991C49.082 31.856 48.66 31.587 48.271 31.345C47.902 31.115 47.565 30.908 47.99 30.865L47.64 30.771C47.578 30.355 48.047 30.766 48.219 30.46C48.189 30.335 47.575 30.356 47.804 30.127C48.165 30.136 48.332 30.079 48.406 29.987C48.482 29.887 48.446 29.744 48.426 29.604C48.411 29.516 48.405 29.429 48.437 29.353C48.5 29.22 48.681 29.123 49.183 29.127C49.173 29.377 49.83 28.743 50.155 29.318C50.325 29.136 50.248 28.45 49.552 28.5Z" fill="white"/>
<path d="M24.597 47.3159C24.609 47.3019 24.625 47.278 24.639 47.265L24.597 47.3159Z" fill="white"/>
<path d="M42.238 12.909C42.238 12.903 42.235 12.901 42.241 12.889C42.183 12.894 42.203 12.901 42.238 12.909Z" fill="white"/>
<path d="M46.131 29.849C46.167 29.804 46.2 29.765 46.246 29.727C46.139 29.73 46.16 29.81 46.131 29.849Z" fill="white"/>
<path d="M32.358 20.936V35.442C32.358 35.442 32.172 36.81 33.298 38.14C33.298 38.14 34.518 39.257 35.896 39.816L38.29 40.645C38.29 40.645 36.816 39.758 36.312 39.354C36.312 39.354 34.934 38.525 34.934 37.08V22.36L34.866 22.316C34.842 22.331 34.811 22.351 34.796 22.36L32.358 20.936Z" fill="white"/>
<path d="M28.475 22.237L27.687 21.677V30.677C28.257 31.116 28.817 31.759 28.443 32.442C28.443 32.442 28.327 32.859 27.687 33.255V35.441C27.687 35.441 27.501 36.809 28.63 38.139C28.63 38.139 29.847 39.256 31.228 39.815L33.618 40.644C33.618 40.644 32.148 39.757 31.641 39.353C31.641 39.353 30.261 38.524 30.261 37.079V22.359L27.95 20.873L30.176 22.373L28.475 22.237Z" fill="white"/>
<path d="M24.398 19.131L24.127 19.154L27.687 21.677L28.475 22.237L30.176 22.372L27.95 20.872L25.5 19.221L24.907 19.325C24.909 19.324 24.691 19.246 24.398 19.131Z" fill="white"/>
<path d="M18.0171 31.8769C17.3731 30.8489 20.012 29.9499 20.012 29.9499L23.835 28.4659C23.728 28.3879 23.629 28.3249 23.565 28.3049L23.72 28.1509C23.72 28.1509 23.868 28.2309 24.101 28.3609L24.579 28.1759C25.312 27.7899 25.741 27.3799 25.741 27.3799C26.326 26.8659 26.234 25.7349 26.234 25.7349V21.8569L23.627 19.9819V21.8849L23.914 22.2899C23.894 22.2899 23.79 22.2949 23.627 22.3039V25.3509C23.813 26.1989 21.912 27.0719 21.912 27.0719C21.71 27.1739 21.344 27.3219 20.904 27.4889C21.309 27.7709 21.661 27.9949 21.661 27.9949C21.199 27.9549 20.417 27.7239 20.417 27.7239C20.396 27.7169 20.373 27.7019 20.354 27.6939C18.82 28.2569 16.825 28.9209 16.825 28.9209C13.726 30.0509 16.549 32.0819 16.549 32.0819C17.466 32.8659 18.597 33.3509 19.382 33.6239C19.468 33.5689 19.557 33.5129 19.666 33.4509C18.802 32.7749 18.0171 31.8769 18.0171 31.8769Z" fill="white"/>
<path d="M28.443 32.442C28.817 31.758 28.257 31.116 27.687 30.677C27.225 30.325 26.757 30.104 26.757 30.104C26.206 29.567 24.788 28.745 24.103 28.361C23.872 28.231 23.722 28.151 23.722 28.151L23.567 28.305C23.63 28.325 23.728 28.388 23.837 28.466C24.433 28.886 25.56 29.976 25.56 29.976C27.064 30.695 24.978 31.518 24.978 31.518C24.304 31.902 22.621 32.315 22.621 32.315C21.181 32.699 20.251 33.119 19.668 33.452C19.559 33.515 19.47 33.571 19.384 33.625C18.983 33.884 18.818 34.061 18.818 34.061C17.379 35.782 24.306 38.942 24.306 38.942L26.147 39.61L25.687 38.942C24.953 38.557 22.253 37.143 22.253 37.143C19.982 35.729 22.773 34.935 22.773 34.935C23.48 34.704 26.024 33.83 26.024 33.83C26.802 33.7 27.329 33.481 27.691 33.257C28.327 32.859 28.443 32.442 28.443 32.442Z" fill="white"/>
<path d="M21.663 27.996C21.663 27.996 21.311 27.772 20.906 27.49C20.442 27.171 19.903 26.776 19.682 26.532C19.682 26.532 17.844 25.106 17.615 24.719C17.615 24.719 15.592 22.677 18.947 22.561C18.947 22.561 22.572 22.358 23.629 22.304C23.792 22.296 23.898 22.29 23.916 22.29L23.629 21.885L22.443 20.21C22.443 20.21 18.263 20.186 17.202 20.21C17.202 20.21 13.612 20.362 14.58 22.174C14.58 22.174 14.953 23.406 17.155 25.336C17.155 25.336 19.066 27.194 20.354 27.695C20.375 27.703 20.398 27.718 20.417 27.725C20.417 27.725 21.201 27.957 21.663 27.996Z" fill="white"/>
<path d="M28.45 13.263C26.503 14.471 23.046 16.626 23.046 16.626C21.337 18.014 22.733 18.36 22.733 18.36C23.036 18.585 23.854 18.921 24.398 19.131C24.691 19.245 24.909 19.324 24.909 19.324L25.502 19.22L25.639 19.196C25.347 19.042 25.053 18.58 25.053 18.58C25.001 18.491 25.521 18.144 25.521 18.144C27.625 16.627 30.784 15.253 30.784 15.253C32.285 14.468 33.51 15.342 33.51 15.342C34.164 15.689 35.925 16.692 35.925 16.692C36.288 16.858 36.272 17.102 36.272 17.102C36.099 17.641 35.421 18.166 35.421 18.166C34.851 18.628 32.107 20.786 32.107 20.786L32.362 20.933L34.8 22.356C34.817 22.347 34.846 22.327 34.87 22.312C35.555 21.869 38.891 19.013 38.891 19.013C40.052 18.013 37.65 16.778 37.65 16.778C36.757 16.176 31.85 13.541 31.85 13.541C29.711 12.21 28.45 13.263 28.45 13.263Z" fill="white"/>
<path d="M68.938 36.226L66.962 37.42L63.136 31.661C62.906 31.331 62.743 31.058 62.656 30.837C62.563 30.619 62.52 30.413 62.52 30.221C62.52 29.891 62.656 29.632 62.922 29.44C63.188 29.248 63.534 29.151 63.96 29.151L64.352 29.646C64.639 30.03 64.988 30.221 65.4 30.221C65.851 30.221 66.23 30.054 66.529 29.718C66.834 29.383 66.984 28.885 66.984 28.227C66.984 27.65 66.896 27.155 66.714 26.736C66.536 26.318 66.355 25.978 66.16 25.718H61.802V23.99H70.788V25.718H68.4C68.578 25.951 68.765 26.297 68.956 26.756C69.147 27.216 69.244 27.768 69.244 28.413C69.244 28.989 69.147 29.499 68.956 29.944C68.766 30.39 68.517 30.764 68.206 31.066C67.896 31.367 67.54 31.597 67.136 31.754C66.731 31.912 66.325 31.991 65.913 31.991H65.706L68.938 36.226Z" fill="white"/>
<path d="M60.75 19.157C60.997 19.02 61.308 18.91 61.686 18.828C62.066 18.746 62.451 18.705 62.85 18.705C63.904 18.705 64.783 18.972 65.483 19.507C66.18 20.042 66.771 20.761 67.251 21.666L68.814 24.628H67.147L65.957 22.817C65.519 22.145 65.082 21.645 64.65 21.315C64.217 20.986 63.668 20.822 62.992 20.822C62.719 20.822 62.449 20.8529 62.182 20.9149C61.914 20.9759 61.677 21.048 61.473 21.131L60.75 19.157Z" fill="white"/>
<path d="M70.378 25.718V23.99H85.513V25.718H83.764V37.071H81.543V25.718H79.075V30.303C79.075 30.907 78.983 31.428 78.798 31.866C78.614 32.305 78.354 32.675 78.015 32.976C77.682 33.278 77.284 33.5 76.826 33.644C76.365 33.788 75.86 33.86 75.31 33.86C74.216 33.86 73.327 33.566 72.651 32.976C71.968 32.387 71.63 31.496 71.63 30.302V25.717H70.378V25.718ZM73.85 30.14C73.85 30.838 73.979 31.337 74.232 31.632C74.486 31.926 74.852 32.073 75.333 32.073C75.841 32.073 76.223 31.926 76.474 31.632C76.727 31.337 76.856 30.839 76.856 30.14V25.719H73.851V30.14H73.85Z" fill="white"/>
<path d="M79.876 37.5839C80.124 37.3239 80.484 37.1049 80.957 36.9269C81.431 36.7489 81.912 36.6589 82.406 36.6589C82.943 36.6589 83.411 36.7349 83.816 36.8859C84.221 37.0359 84.563 37.2449 84.844 37.5119C85.123 37.7799 85.337 38.0889 85.479 38.4379C85.625 38.7879 85.697 39.1609 85.697 39.5589C85.697 40.0119 85.608 40.4329 85.43 40.8239C85.252 41.2149 84.994 41.5479 84.659 41.8219C84.324 42.0969 83.919 42.3129 83.444 42.4699C82.972 42.6279 82.438 42.7059 81.852 42.7059C80.798 42.7059 79.776 42.4639 78.797 41.9759C77.816 41.4899 76.975 40.7939 76.277 39.8899L77.634 38.6759C78.306 39.4299 78.975 39.9959 79.641 40.3729C80.302 40.7499 81 40.9379 81.726 40.9379C82.302 40.9379 82.731 40.8079 83.011 40.5469C83.29 40.2869 83.433 39.9589 83.433 39.5599C83.433 39.2179 83.327 38.9389 83.116 38.7269C82.902 38.5149 82.59 38.4089 82.177 38.4089C81.934 38.4089 81.691 38.4609 81.449 38.5639C81.213 38.6669 81.001 38.7939 80.824 38.9429L79.876 37.5839Z" fill="white"/>
<path d="M94.254 37.071H92.072V34.192C91.895 34.424 91.611 34.617 91.229 34.768C90.846 34.919 90.405 34.994 89.914 34.994C89.393 34.994 88.896 34.909 88.432 34.738C87.967 34.566 87.557 34.313 87.2 33.976C86.842 33.641 86.558 33.229 86.347 32.743C86.133 32.257 86.028 31.691 86.028 31.046C86.028 30.457 86.127 29.936 86.324 29.482C86.524 29.031 86.792 28.654 87.129 28.352C87.461 28.051 87.853 27.824 88.297 27.673C88.746 27.522 89.214 27.446 89.708 27.446C90.172 27.446 90.614 27.518 91.033 27.662C91.45 27.806 91.8 28.016 92.073 28.29V25.719H85.101V23.991H101.493V25.719H94.255V28.454C94.473 28.18 94.798 27.956 95.234 27.786C95.666 27.614 96.159 27.528 96.722 27.528C97.23 27.528 97.701 27.608 98.139 27.765C98.58 27.923 98.962 28.152 99.292 28.454C99.621 28.756 99.882 29.129 100.076 29.574C100.266 30.02 100.362 30.523 100.362 31.085C100.362 31.716 100.257 32.269 100.043 32.741C99.832 33.214 99.542 33.605 99.18 33.913C98.817 34.221 98.397 34.452 97.915 34.601C97.434 34.752 96.92 34.828 96.373 34.828C96.222 34.828 96.033 34.814 95.816 34.787C95.595 34.76 95.431 34.732 95.322 34.704L95.569 32.956C95.776 32.998 95.987 33.018 96.209 33.018C96.716 33.018 97.157 32.86 97.536 32.544C97.912 32.23 98.099 31.743 98.099 31.084C98.099 30.522 97.938 30.087 97.614 29.779C97.292 29.47 96.844 29.316 96.267 29.316C95.612 29.316 95.111 29.516 94.768 29.914C94.425 30.311 94.254 30.853 94.254 31.538V37.071ZM92.096 30.016C91.859 29.769 91.591 29.577 91.292 29.44C90.988 29.303 90.646 29.234 90.264 29.234C89.714 29.234 89.248 29.395 88.864 29.717C88.482 30.039 88.287 30.522 88.287 31.167C88.287 31.812 88.463 32.309 88.814 32.657C89.164 33.008 89.626 33.181 90.202 33.181C90.449 33.181 90.686 33.144 90.911 33.069C91.138 32.994 91.336 32.881 91.51 32.729C91.682 32.579 91.82 32.38 91.929 32.133C92.037 31.886 92.097 31.599 92.097 31.27V30.016H92.096Z" fill="white"/>
<path d="M102.563 25.718H100.814V23.99H106.533V25.718H104.784V37.071H102.563V25.718Z" fill="white"/>
<path d="M121.937 25.718H120.188V37.071H117.967V32.485C117.774 32.636 117.488 32.776 117.112 32.906C116.733 33.036 116.272 33.102 115.721 33.102C115.232 33.102 114.759 33.033 114.315 32.896C113.87 32.759 113.478 32.55 113.142 32.27C112.809 31.989 112.539 31.632 112.341 31.2C112.141 30.767 112.041 30.25 112.041 29.647V25.719H110.809V23.991H121.937V25.718ZM114.263 29.502C114.263 30.146 114.424 30.608 114.746 30.89C115.068 31.171 115.491 31.312 116.011 31.312C116.449 31.312 116.844 31.222 117.195 31.044C117.544 30.865 117.801 30.661 117.967 30.427V25.718H114.263V29.502Z" fill="white"/>
<path d="M113.418 37.716L111.979 35.799L118.214 31.897L119.081 33.123L113.418 37.716Z" fill="white"/>
<path d="M124.316 18.787C124.316 19.404 124.217 19.932 124.02 20.37C123.819 20.81 123.554 21.173 123.225 21.461C122.899 21.749 122.52 21.959 122.094 22.087C121.67 22.218 121.232 22.283 120.778 22.283C120.27 22.283 119.799 22.211 119.361 22.068C118.92 21.924 118.538 21.708 118.209 21.42C117.881 21.132 117.623 20.77 117.439 20.33C117.251 19.891 117.159 19.377 117.159 18.788H119.092C119.134 19.419 119.295 19.865 119.575 20.125C119.855 20.386 120.244 20.515 120.738 20.515C121.232 20.515 121.622 20.371 121.911 20.084C122.198 19.796 122.356 19.364 122.383 18.788L124.316 18.787ZM122.28 25.718H120.53V23.99H126.25V25.718H124.501V37.071H122.28V25.718Z" fill="white"/>
<path d="M129.469 33.164C129.207 33.013 128.945 32.831 128.678 32.618C128.41 32.406 128.164 32.166 127.937 31.899C127.712 31.632 127.525 31.337 127.379 31.014C127.237 30.693 127.165 30.353 127.165 29.996C127.165 29.228 127.419 28.595 127.927 28.094C128.435 27.594 129.214 27.344 130.273 27.344H132.988V25.719H126.033V23.991H137.182V25.719H135.204V29.113H130.661C130.262 29.113 129.959 29.198 129.746 29.369C129.534 29.541 129.429 29.784 129.429 30.1C129.429 30.319 129.489 30.524 129.614 30.717C129.735 30.91 129.887 31.073 130.066 31.212C130.438 31.102 130.784 31.026 131.116 30.985C131.443 30.943 131.765 30.923 132.082 30.923C133.37 30.923 134.371 31.207 135.083 31.776C135.795 32.345 136.154 33.103 136.154 34.048C136.154 34.981 135.779 35.745 135.03 36.342C134.286 36.938 133.191 37.237 131.753 37.237C131.202 37.237 130.678 37.189 130.177 37.093C129.678 36.996 129.212 36.866 128.781 36.702C128.349 36.536 127.954 36.352 127.598 36.146C127.243 35.94 126.933 35.728 126.673 35.508L127.681 33.966C128.244 34.419 128.863 34.772 129.542 35.025C130.217 35.278 130.928 35.405 131.67 35.405C132.438 35.405 133.001 35.278 133.354 35.025C133.714 34.772 133.891 34.432 133.891 34.007C133.891 33.596 133.719 33.28 133.377 33.061C133.034 32.842 132.557 32.731 131.937 32.731C131.526 32.731 131.124 32.766 130.725 32.834C130.326 32.902 129.907 33.012 129.469 33.164Z" fill="white"/>
<path d="M149.204 29.7799C148.885 29.4709 148.436 29.3169 147.859 29.3169C147.201 29.3169 146.704 29.5169 146.357 29.9149C146.014 30.3119 145.842 30.8539 145.842 31.5389V37.0719H143.665V34.1929C143.483 34.4249 143.204 34.6179 142.821 34.7689C142.435 34.9199 141.997 34.9949 141.503 34.9949C140.982 34.9949 140.489 34.9099 140.022 34.7389C139.557 34.5669 139.145 34.3139 138.789 33.9769C138.435 33.6419 138.147 33.2299 137.936 32.7439C137.721 32.2579 137.616 31.6919 137.616 31.0469C137.616 30.4579 137.716 29.9369 137.917 29.4829C138.114 29.0319 138.382 28.6549 138.718 28.3529C139.053 28.0519 139.446 27.8249 139.89 27.6739C140.335 27.5229 140.806 27.4469 141.3 27.4469C141.765 27.4469 142.206 27.5189 142.625 27.6629C143.043 27.8069 143.392 28.0169 143.666 28.2909V25.7199H136.691V23.9919H153.082V25.7199H145.843V28.4549C146.061 28.1809 146.391 27.9569 146.822 27.7869C147.254 27.6149 147.752 27.5289 148.312 27.5289C148.823 27.5289 149.293 27.6089 149.732 27.7659C150.17 27.9239 150.555 28.1529 150.884 28.4549M143.685 30.0159C143.451 29.7689 143.184 29.5769 142.88 29.4399C142.581 29.3029 143.306 29.2339 142.921 29.2339C142.373 29.2339 140.838 29.3949 140.452 29.7169C140.07 30.0389 139.879 30.5219 139.879 31.1669C139.879 31.8119 140.051 32.3089 140.403 32.6569C140.752 33.0079 141.215 33.1809 141.79 33.1809C142.038 33.1809 142.274 33.1439 142.498 33.0689C142.729 32.9939 142.923 32.8809 143.099 32.7289C143.269 32.5789 143.412 32.3799 143.517 32.1329C143.629 31.8859 143.685 31.5989 143.685 31.2699V30.0159Z" fill="white"/>
<path d="M159.119 40.669L158.254 41.903L154.061 39.085L155.071 37.686L159.119 40.669Z" fill="white"/>
<path d="M158.529 36.248C158.088 36.522 157.543 36.738 156.89 36.895C156.242 37.053 155.48 37.132 154.617 37.132C153.88 37.132 153.183 37.032 152.531 36.833C151.879 36.635 151.312 36.344 150.824 35.959C150.337 35.575 149.955 35.099 149.675 34.53C149.393 33.961 149.254 33.307 149.254 32.566C149.254 31.401 149.609 30.468 150.33 29.77C151.049 29.071 151.988 28.604 153.138 28.371L155.237 27.961V25.719H148.325V23.991H159.29V25.719H157.438V29.544L154.952 29.996C153.853 30.202 153.014 30.507 152.431 30.911C151.848 31.316 151.558 31.902 151.558 32.67C151.558 33.095 151.637 33.471 151.805 33.799C151.97 34.13 152.194 34.404 152.481 34.622C152.77 34.842 153.113 35.006 153.509 35.116C153.906 35.226 154.339 35.281 154.806 35.281C155.353 35.281 155.902 35.217 156.451 35.086C157.002 34.955 157.492 34.753 157.93 34.479L158.529 36.248Z" fill="white"/>
<path d="M165.664 36.226L163.691 37.42L159.843 31.702C159.624 31.373 159.466 31.103 159.37 30.89C159.274 30.677 159.225 30.476 159.225 30.283C159.225 29.941 159.364 29.676 159.637 29.492C159.914 29.306 160.26 29.213 160.684 29.213L161.057 29.707C161.209 29.898 161.366 30.042 161.528 30.139C161.694 30.235 161.891 30.283 162.126 30.283C162.564 30.283 162.939 30.105 163.249 29.749C163.556 29.393 163.71 28.885 163.71 28.227C163.71 27.65 163.618 27.155 163.444 26.736C163.264 26.318 163.081 25.978 162.885 25.718H158.567V23.99H173.11V25.718H171.36V37.071H169.139V32.052C168.92 32.162 168.645 32.244 168.315 32.298C167.985 32.353 167.581 32.381 167.102 32.381C166.625 32.381 166.127 32.306 165.623 32.154C165.115 32.004 164.68 31.812 164.328 31.579C163.803 31.894 163.244 32.052 162.642 32.052C162.556 32.052 162.49 32.046 162.433 32.031L165.664 36.226ZM166.837 30.509C167.37 30.509 167.825 30.448 168.204 30.325C168.579 30.201 168.892 30.043 169.14 29.852V25.718H165.13C165.304 25.951 165.493 26.297 165.683 26.756C165.874 27.216 165.974 27.768 165.974 28.413C165.974 29.139 165.822 29.77 165.519 30.304C165.917 30.441 166.357 30.509 166.837 30.509Z" fill="white"/>
</svg>
