<svg width="243" height="158" viewBox="0 0 243 158" fill="none" xmlns="http://www.w3.org/2000/svg">
<path d="M160.011 55.2854C160.011 55.2854 121.846 13.5559 121.266 1.2921V1C121.266 1.046 121.253 1.09891 121.253 1.14491C121.253 1.09891 121.239 1.0437 121.239 1V1.2921C120.659 13.5559 82.4948 55.2854 82.4948 55.2854C50.1885 88.6129 105.96 128.401 105.96 128.401C105.96 128.401 117.471 135.575 121.239 139.66V139.687C121.244 139.683 121.248 139.678 121.253 139.674C121.257 139.678 121.262 139.683 121.266 139.687V139.66C125.036 135.577 136.548 128.401 136.548 128.401C136.548 128.401 192.319 88.6152 160.011 55.2854Z" stroke="white" stroke-width="2"/>
<path d="M113.538 48.2473C113.538 48.2473 59.6003 31.1833 52.9854 20.8515L52.8405 20.6077C52.8659 20.6468 52.8819 20.6975 52.898 20.7366C52.875 20.6975 52.8405 20.6584 52.8175 20.6216L52.9625 20.8654C58.5999 31.7606 46.4074 87.0028 46.4074 87.0028C35.0935 132.019 103.287 138.593 103.287 138.593C103.287 138.593 116.848 139.05 122.15 140.704L122.164 140.727C122.164 140.722 122.168 140.716 122.168 140.711C122.173 140.711 122.177 140.713 122.182 140.713L122.173 140.697C123.38 135.278 129.77 123.302 129.77 123.302C129.77 123.302 158.18 60.955 113.538 48.2473Z" stroke="white" stroke-width="2"/>
<path d="M121.108 139.869C121.112 139.869 121.117 139.867 121.122 139.867L121.103 139.858C119.44 134.556 118.985 120.995 118.985 120.995C118.985 120.995 112.418 52.7991 67.3951 64.1153C67.3951 64.1153 12.1529 76.3078 1.2576 70.6681L1.01614 70.5255C1.05524 70.5485 1.09203 70.583 1.13343 70.6083C1.08973 70.5876 1.0414 70.5715 1 70.5485L1.24385 70.6911C11.5779 77.306 28.6395 131.244 28.6395 131.244C41.3449 175.888 103.694 147.482 103.694 147.482C103.694 147.482 115.666 141.095 121.085 139.878L121.112 139.892C121.11 139.883 121.108 139.876 121.108 139.869Z" stroke="white" stroke-width="2"/>
<path d="M242 70.5461C241.961 70.5691 241.91 70.5852 241.869 70.6059C241.908 70.5829 241.947 70.5461 241.986 70.5231L241.742 70.6657C230.852 76.3054 175.605 64.1129 175.605 64.1129C130.591 52.7967 124.015 120.993 124.015 120.993C124.015 120.993 123.56 134.547 121.904 139.851L121.881 139.865C121.888 139.865 121.894 139.867 121.899 139.869C121.897 139.874 121.897 139.881 121.895 139.888L121.917 139.874C127.336 141.093 139.31 147.478 139.31 147.478C139.31 147.478 201.651 175.885 214.363 131.239C214.363 131.239 231.429 77.3013 241.759 70.6864L242 70.5461Z" stroke="white" stroke-width="2"/>
<path d="M197.752 87.0028C197.752 87.0028 185.557 31.7629 191.199 20.8654L191.344 20.6216C191.319 20.6607 191.286 20.6998 191.263 20.7366C191.284 20.6975 191.3 20.6445 191.319 20.6077L191.176 20.8515C184.561 31.1833 130.623 48.2473 130.623 48.2473C85.9793 60.955 114.387 123.302 114.387 123.302C114.387 123.302 120.765 135.269 121.989 140.69L121.975 140.713C121.98 140.711 121.986 140.711 121.993 140.709C121.993 140.713 121.996 140.72 121.998 140.727L122.012 140.704C127.313 139.05 140.87 138.595 140.87 138.595C140.87 138.595 209.068 132.019 197.752 87.0028Z" stroke="white" stroke-width="2"/>
</svg>
