<svg width="56" height="56" viewBox="0 0 56 56" fill="none" xmlns="http://www.w3.org/2000/svg">
<path d="M18.037 8.48289C17.411 8.50789 16.808 8.62089 16.553 9.40289C17.198 9.05489 17.866 8.74389 18.545 8.46289C18.375 8.47289 18.204 8.47589 18.037 8.48289Z" fill="white"/>
<path d="M20.374 7.79507C20.634 7.71307 20.907 7.66107 21.172 7.59007C20.916 7.49107 20.633 7.60407 20.374 7.79507Z" fill="white"/>
<path d="M16.007 9.49487C16.057 9.56187 16.075 9.60987 16.106 9.66487C16.16 9.63587 16.209 9.60188 16.261 9.57088L16.007 9.49487Z" fill="white"/>
<path d="M20.058 7.77686C19.991 7.85586 19.924 7.92186 19.857 7.98286C19.924 7.96086 19.986 7.93387 20.051 7.91187L20.058 7.77686Z" fill="white"/>
<path d="M21.101 49.3641C20.387 49.0581 19.646 48.8281 18.885 48.6331C19.607 48.9171 20.345 49.1571 21.101 49.3641Z" fill="white"/>
<path d="M34.817 8.79889C33.689 8.71189 32.774 7.57689 31.557 8.11589L31.716 7.69289C30.589 7.48589 29.459 7.7469 28.335 7.6299L28.358 7.13789L27.888 7.45689L27.954 7.21089C27.076 7.44189 25.799 6.89689 25.17 7.57089L25.288 7.03589C24.577 7.06289 23.888 7.44589 23.226 7.72589C22.557 8.00689 21.914 8.18189 21.124 7.81989C21.203 7.72089 21.159 7.64589 21.197 7.59489C21.187 7.59089 21.176 7.5939 21.167 7.5909C20.901 7.6619 20.629 7.7149 20.369 7.7959C20.254 7.8809 20.14 7.9759 20.04 8.0799L20.047 7.91289C19.982 7.93389 19.92 7.96189 19.853 7.98389C19.442 8.35689 18.995 8.43889 18.54 8.46489C17.858 8.74589 17.191 9.05689 16.548 9.40489C16.523 9.47989 16.496 9.5519 16.482 9.6409L16.257 9.57289C16.203 9.60289 16.153 9.63689 16.102 9.66689C16.51 10.4089 15.484 10.1499 15.594 10.8479L15.465 10.4009C15.027 11.4899 14.138 11.8309 13.214 12.2539C12.306 12.6639 11.38 13.1709 11.224 14.2709L10.961 14.0679C10.239 14.9029 10.027 15.6669 9.329 16.4889C8.672 17.6089 7.85301 18.6529 7.21801 19.8179C6.58401 20.9739 6.14099 22.2519 6.30199 23.5799L6.04702 23.5079C6.33202 24.5739 6.14 25.5219 6.045 26.5059C5.992 26.9939 5.97902 27.4859 6.05102 27.9539C6.13702 28.4669 6.30699 28.9049 6.65999 29.3459C6.50199 31.4829 6.93701 33.7429 8.14101 35.5319C8.00401 35.5019 7.70199 35.6399 7.65499 35.6959C9.14999 35.5189 7.81302 36.5489 8.78402 36.9609C8.71602 37.1509 8.42301 37.1189 8.30501 37.1659C8.65801 38.1779 9.82699 38.7539 10.048 39.8559C9.97699 39.8569 9.90201 39.8589 9.79101 39.9289C10.072 40.0779 10.35 40.2229 10.629 40.3569L10.339 40.3739C11.525 42.1829 13.299 43.5449 15.151 44.5409C17.016 45.5509 18.942 46.2139 20.797 46.9499C20.657 46.8149 20.521 47.1789 20.431 47.4219L20.841 47.2489L20.807 47.4569C21.478 47.0309 21.671 48.0959 22.203 47.8629C22.099 47.9649 22.099 47.9649 22.065 48.0899C22.557 48.0609 22.854 48.9079 23.378 48.8449C23.302 48.8329 23.276 48.9569 23.3 49.0329C23.739 48.5609 24.232 47.7289 24.595 47.3199L24.637 47.2679C24.623 47.2809 24.607 47.3049 24.595 47.3199C25.76 48.0329 27.198 48.4829 28.607 48.4409C30.009 48.4049 31.37 47.8739 32.281 46.8099C32.55 47.5509 32.868 46.6429 33.161 47.1109C33.811 46.3789 34.899 46.0799 35.146 45.3429C35.632 45.5159 35.827 45.1459 36.618 46.0419C36.764 45.0919 37.597 44.4969 38.222 43.9389L38.25 44.0989C38.551 43.2789 39.501 43.1329 40.082 42.9509C39.712 41.6439 41.353 41.7939 41.172 40.6349C41.755 40.0289 42.712 39.3379 43.267 38.4659C43.41 38.5799 43.59 38.6659 43.819 38.7179C42.974 37.8479 44.587 37.6609 43.729 37.1059C45.263 37.2189 43.291 36.1599 44.585 36.0929C44.536 36.1249 44.618 36.1759 44.69 36.2199C44.79 35.9189 45.305 35.2209 46.247 35.2209C45.421 35.2089 46.083 34.6519 45.739 34.3719C46.074 33.2589 46.33 32.0739 46.198 31.0159C47.246 31.3039 45.465 30.6209 46.096 30.5819L46.405 30.5339C46.516 30.3509 46.929 30.0239 46.3 29.7319C46.272 29.7259 46.259 29.7279 46.244 29.7309C46.198 29.7689 46.165 29.8079 46.129 29.8529C46.157 29.8139 46.138 29.7339 46.244 29.7309C46.587 29.3809 47.371 29.3779 47.456 28.8189C47.859 28.7709 47.592 28.8019 48.131 28.6649L47.593 28.5729C47.866 28.3709 48.156 28.3329 48.462 28.3519C48.419 21.4429 45.134 15.3149 40.059 11.3779C38.296 10.4319 36.467 9.78489 34.687 8.92389L34.817 8.79889ZM37.644 16.7809C37.644 16.7809 40.046 18.0169 38.885 19.0159C38.885 19.0159 35.549 21.8719 34.864 22.3149L34.932 22.3589V37.0789C34.932 38.5239 36.31 39.3529 36.31 39.3529C36.814 39.7569 38.288 40.6439 38.288 40.6439L35.894 39.8149C34.516 39.2559 33.296 38.1389 33.296 38.1389C32.17 36.8089 32.356 35.4409 32.356 35.4409V20.9349L32.101 20.7879C32.101 20.7879 34.845 18.6309 35.415 18.1679C35.415 18.1679 36.093 17.6429 36.266 17.1039C36.266 17.1039 36.284 16.8589 35.919 16.6939C35.919 16.6939 34.158 15.6909 33.504 15.3439C33.504 15.3439 32.278 14.4699 30.777 15.2549C30.777 15.2549 27.62 16.6289 25.515 18.1459C25.515 18.1459 24.995 18.4929 25.047 18.5819C25.047 18.5819 25.341 19.0439 25.633 19.1979L25.496 19.2219L27.946 20.8729L30.257 22.3589V37.0789C30.257 38.5239 31.637 39.3529 31.637 39.3529C32.144 39.7569 33.614 40.6439 33.614 40.6439L31.224 39.8149C29.843 39.2559 28.626 38.1389 28.626 38.1389C27.497 36.8089 27.683 35.4409 27.683 35.4409V33.2549C27.321 33.4799 26.794 33.6979 26.016 33.8279C26.016 33.8279 23.472 34.7029 22.765 34.9329C22.765 34.9329 19.976 35.7279 22.245 37.1409C22.245 37.1409 24.942 38.5549 25.679 38.9399L26.139 39.6079L24.298 38.9399C24.298 38.9399 17.369 35.7799 18.81 34.0589C18.81 34.0589 18.975 33.8819 19.376 33.6229C18.591 33.3499 17.46 32.8649 16.543 32.0809C16.543 32.0809 13.722 30.0509 16.819 28.9199C16.819 28.9199 18.814 28.2559 20.348 27.6929C19.06 27.1929 17.149 25.3339 17.149 25.3339C14.947 23.4049 14.574 22.1719 14.574 22.1719C13.606 20.3599 17.196 20.2079 17.196 20.2079C18.259 20.1839 22.437 20.2079 22.437 20.2079L23.623 21.8829V19.9799L26.23 21.8549V25.7329C26.23 25.7329 26.322 26.8639 25.737 27.3779C25.737 27.3779 25.308 27.7879 24.575 28.1739L24.097 28.3589C24.784 28.7429 26.201 29.5649 26.751 30.1019C26.751 30.1019 27.219 30.3229 27.681 30.6749V21.6749L24.121 19.1519L24.392 19.1289C23.848 18.9189 23.03 18.5829 22.727 18.3579C22.727 18.3579 21.331 18.0109 23.04 16.6239C23.04 16.6239 26.497 14.4679 28.444 13.2609C28.444 13.2609 29.706 12.2079 31.84 13.5419C31.844 13.5429 36.752 16.1789 37.644 16.7809Z" fill="white"/>
<path d="M48.105 32.364C48.123 32.275 48.132 32.184 48.147 32.093C48.087 32.169 48.082 32.262 48.105 32.364Z" fill="white"/>
<path d="M48.21 30.4649C48.038 30.7699 47.569 30.3599 47.631 30.7759L47.981 30.8699C47.556 30.9129 47.893 31.1199 48.262 31.3499C48.322 30.9009 48.365 30.4499 48.397 29.9929C48.326 30.0849 48.159 30.1419 47.795 30.1329C47.567 30.3609 48.179 30.3389 48.21 30.4649Z" fill="white"/>
<path d="M24.939 50.052C24.935 50.053 24.931 50.054 24.928 50.054C25.547 50.108 26.172 50.149 26.807 50.149C27.299 50.149 27.784 50.108 28.265 50.075C28.23 50.061 28.197 50.052 28.161 50.036C27.191 49.452 26.124 49.8 24.939 50.052Z" fill="white"/>
<path d="M48.416 29.6089C48.421 29.5259 48.425 29.4419 48.427 29.3579C48.395 29.4339 48.401 29.5219 48.416 29.6089Z" fill="white"/>
<path d="M45.799 38.4649C44.374 39.6439 43.52 41.0389 42.501 42.4589C41.5 43.8609 40.313 45.2669 38.658 45.9689C38.271 46.4539 37.845 46.9199 37.403 47.3689C41.789 44.9039 45.213 40.9549 47.031 36.2039C47.028 36.2059 47.027 36.2059 47.025 36.2079C46.371 36.9129 45.773 37.5379 45.799 38.4649Z" fill="white"/>
<path d="M17.615 24.7199C17.844 25.1059 19.682 26.5329 19.682 26.5329C19.903 26.7779 20.442 27.1729 20.906 27.4909C21.344 27.3229 21.712 27.1749 21.914 27.0739C21.914 27.0739 23.813 26.1999 23.629 25.3529V22.3059C22.572 22.3599 18.947 22.5629 18.947 22.5629C15.591 22.6769 17.615 24.7199 17.615 24.7199Z" fill="white"/>
<path d="M18.017 31.8768C18.017 31.8768 18.801 32.7749 19.664 33.4509C20.247 33.1179 21.177 32.6988 22.617 32.3138C22.617 32.3138 24.302 31.9008 24.974 31.5168C24.974 31.5168 27.06 30.6939 25.556 29.9749C25.556 29.9749 24.429 28.8848 23.833 28.4648L20.01 29.9489C20.012 29.9499 17.374 30.8488 18.017 31.8768Z" fill="white"/>
<path d="M50.909 28.229L51.179 28.486L51.333 28.413L50.909 28.229Z" fill="white"/>
<path d="M50.218 27.3C50.139 27.34 50.013 27.329 49.935 27.368C50.341 27.577 50.757 27.7991 51.159 28.0331C51.836 27.6841 49.767 27.517 50.218 27.3Z" fill="white"/>
<path d="M50.324 27.089C50.589 26.799 50.019 26.724 49.822 26.679C50.265 26.741 49.718 27.185 50.324 27.089Z" fill="white"/>
<path d="M37.9 8.01698C37.923 8.02598 37.962 8.02797 37.99 8.02697C37.964 7.98997 37.93 7.99298 37.9 8.01698Z" fill="white"/>
<path d="M49.552 28.5C49.162 28.463 48.803 28.369 48.464 28.348C48.158 28.328 47.868 28.367 47.595 28.569L48.133 28.661C47.594 28.799 47.862 28.767 47.458 28.815C47.373 29.374 46.589 29.377 46.246 29.727C46.261 29.725 46.272 29.722 46.302 29.728C46.933 30.02 46.52 30.348 46.407 30.53L46.098 30.578C45.465 30.617 47.246 31.3 46.2 31.012C46.332 32.07 46.076 33.255 45.741 34.368C46.085 34.648 45.423 35.205 46.249 35.217C45.309 35.217 44.792 35.915 44.692 36.216C44.62 36.172 44.538 36.121 44.587 36.089C43.291 36.156 45.265 37.215 43.731 37.102C44.587 37.657 42.976 37.844 43.821 38.714C43.592 38.662 43.412 38.576 43.269 38.462C42.714 39.334 41.757 40.025 41.174 40.631C41.355 41.79 39.714 41.64 40.084 42.947C39.503 43.129 38.553 43.275 38.252 44.094L38.224 43.934C37.6 44.492 36.767 45.086 36.62 46.037C35.829 45.141 35.636 45.511 35.148 45.338C34.901 46.075 33.813 46.374 33.163 47.106C32.87 46.639 32.552 47.546 32.283 46.805C31.372 47.868 30.012 48.4 28.609 48.436C27.2 48.478 25.762 48.028 24.597 47.315C24.234 47.724 23.743 48.556 23.302 49.028C23.28 48.952 23.304 48.827 23.38 48.84C22.857 48.903 22.56 48.056 22.067 48.085C22.1 47.96 22.1 47.96 22.205 47.858C21.675 48.091 21.48 47.026 20.809 47.452L20.843 47.244L20.433 47.417C20.523 47.175 20.661 46.81 20.799 46.945C18.945 46.209 17.02 45.547 15.153 44.536C13.301 43.54 11.527 42.178 10.341 40.369L10.631 40.352C10.352 40.219 10.074 40.074 9.79299 39.924C9.90199 39.855 9.97901 39.853 10.05 39.851C9.82901 38.748 8.658 38.172 8.307 37.161C8.423 37.114 8.716 37.146 8.786 36.956C7.815 36.544 9.152 35.514 7.656 35.691C7.704 35.635 8.008 35.497 8.143 35.527C6.939 33.738 6.50201 31.478 6.66201 29.341C6.30801 28.9 6.139 28.462 6.053 27.949C5.981 27.481 5.99402 26.989 6.04702 26.501C6.14202 25.517 6.334 24.569 6.049 23.503L6.30401 23.575C6.14301 22.247 6.58599 20.969 7.21999 19.813C7.85699 18.648 8.67402 17.604 9.33102 16.484C10.029 15.661 10.24 14.898 10.963 14.063L11.226 14.266C11.382 13.166 12.308 12.66 13.216 12.249C14.14 11.826 15.029 11.486 15.467 10.396L15.596 10.843C15.486 10.146 16.512 10.405 16.104 9.66197C16.074 9.60697 16.055 9.55897 16.005 9.49197L16.259 9.56796L16.484 9.63597C16.5 9.54797 16.525 9.47496 16.55 9.39996C16.806 8.61796 17.408 8.50396 18.034 8.47996C18.201 8.47196 18.373 8.46897 18.542 8.45997C18.996 8.43397 19.443 8.35197 19.855 7.97897C19.922 7.91697 19.988 7.85196 20.056 7.77296L20.049 7.90797L20.042 8.07496C20.142 7.97096 20.256 7.87597 20.371 7.79097C20.63 7.59997 20.912 7.48597 21.169 7.58597C21.178 7.58897 21.19 7.58596 21.199 7.58996C21.161 7.64096 21.205 7.71497 21.126 7.81497C21.916 8.17697 22.559 8.00196 23.228 7.72096C23.888 7.44096 24.579 7.05797 25.29 7.03097L25.172 7.56596C25.801 6.89196 27.078 7.43796 27.956 7.20596L27.89 7.45196L28.36 7.13296L28.337 7.62497C29.461 7.74197 30.591 7.48097 31.718 7.68797L31.559 8.11096C32.776 7.57196 33.691 8.70697 34.819 8.79397L34.69 8.91496C36.47 9.77596 38.299 10.423 40.062 11.369C40.76 11.745 41.45 12.164 42.121 12.67C42.053 12.674 41.95 12.759 41.883 12.763C42.088 12.748 42.403 12.651 42.489 12.786C42.445 12.887 42.307 12.906 42.24 12.903C42.136 13.831 43.815 13.886 43.627 14.57C43.799 14.647 44.084 14.514 44.21 14.287C45.824 15.965 47.22 18.033 48.632 20.108C48.579 20.255 48.397 20.346 48.145 20.407C50.017 21.926 50.089 24.355 50.061 26.467C50.382 26.523 50.376 26.217 50.724 26.404C51.056 25.645 49.816 25.219 50.284 24.515L50.598 24.545C50.709 24.049 49.827 24.584 50.126 24.043C50.34 23.809 50.518 24.017 50.522 23.925C50.215 22.979 50.213 21.875 49.217 21.219C49.783 20.79 48.9 20.221 49.359 19.654C49.018 19.51 48.982 19.248 48.541 19.328C48.037 17.685 47.113 16.178 46.02 14.832C44.919 13.482 43.663 12.287 42.393 11.116C41.363 11.059 40.749 10.483 40.105 9.81297C39.465 9.14997 38.784 8.39697 37.838 8.12597C37.848 8.08297 37.875 8.03796 37.901 8.01196C37.199 7.98896 36.342 7.73696 35.727 7.30496L34.949 7.57997C33.134 6.26697 30.888 5.65497 28.645 5.48297C26.407 5.30797 24.125 5.53296 21.872 5.78596C19.319 6.17296 16.884 6.82097 14.726 8.02597C12.581 9.21997 10.726 11.005 9.72399 13.424C9.63099 13.334 9.55201 13.319 9.60101 13.192C8.85301 14.424 7.703 15.211 7.212 16.519L7.10799 16.45C6.68199 18.157 5.937 19.67 5.367 21.287C4.802 22.887 4.43299 24.594 4.84499 26.207C4.30499 29.961 5.11801 34.408 7.15801 37.825L6.92602 37.925C7.85302 39.247 8.48902 40.656 9.28802 42.048C10.075 43.43 11.047 44.778 12.425 45.672C13.528 46.977 15.218 47.656 16.871 48.11C17.555 48.298 18.226 48.457 18.889 48.627C19.65 48.822 20.391 49.052 21.105 49.358C21.286 49.436 21.47 49.499 21.648 49.59C22.488 50.441 23.768 50.303 24.932 50.048C24.935 50.048 24.939 50.047 24.943 50.046C26.129 49.794 27.195 49.446 28.166 50.03C28.2 50.046 28.234 50.054 28.27 50.069C30.245 50.879 32.323 50.639 34.1 49.804C35.349 49.22 36.443 48.347 37.409 47.364C37.851 46.914 38.277 46.449 38.663 45.964C40.317 45.262 41.506 43.856 42.507 42.454C43.526 41.034 44.38 39.639 45.805 38.46C45.78 37.533 46.376 36.908 47.033 36.204C47.035 36.203 47.036 36.203 47.038 36.2C47.691 35.507 48.4 34.727 48.495 33.775L48.176 33.764C48.908 33.454 48.224 32.806 48.113 32.36C48.09 32.257 48.094 32.165 48.155 32.089C48.225 32.004 48.37 31.94 48.634 31.911L48.686 31.991C49.082 31.856 48.66 31.587 48.271 31.345C47.902 31.115 47.565 30.908 47.99 30.865L47.64 30.771C47.578 30.355 48.047 30.766 48.219 30.46C48.189 30.335 47.575 30.356 47.804 30.127C48.165 30.136 48.332 30.079 48.406 29.987C48.482 29.887 48.446 29.744 48.426 29.604C48.411 29.516 48.405 29.429 48.437 29.353C48.5 29.22 48.681 29.123 49.183 29.127C49.173 29.377 49.83 28.743 50.155 29.318C50.325 29.136 50.248 28.45 49.552 28.5Z" fill="white"/>
<path d="M24.597 47.3159C24.609 47.3019 24.625 47.2779 24.639 47.2649L24.597 47.3159Z" fill="white"/>
<path d="M42.238 12.9089C42.238 12.9029 42.235 12.9009 42.241 12.8889C42.183 12.8939 42.203 12.9009 42.238 12.9089Z" fill="white"/>
<path d="M46.131 29.849C46.167 29.804 46.2 29.7651 46.246 29.7271C46.139 29.7301 46.16 29.81 46.131 29.849Z" fill="white"/>
</svg>
